Genre:Action | Adventure | Thriller
Language:English
IMDb:http://www.imdb.com/title/tt1320253/
Source Video:rus.Thanks
Audio Source:OWN/imagine.Thanks
Source str.Classified.Thanks
Sample:Yes
.............................................
General
Complete name : The Expendables 2010 TS XVID FEEL-FREE
Format : AVI
Format/Info : Audio Video Interleave
File size : 984 MiB
Duration : 1h 34mn
Overall bit rate : 1 457 Kbps
..............................................
Video
Format : xvid
Codec ID : xvid
Duration : 1h 34mn
Bit rate : 1 187 Kbps
Width : 688 pixels
Height : 288 pixels
Display aspect ratio : 2.35:1
Frame rate : 29.970 fps
Resolution : 24 bits
Bits/(Pixel*Frame) : 0.200
Stream size : 802 MiB (82%)
...............................................
Audio
ID : 1
Format : MPEG Audio
Format version : Version 1
Format profile : Layer 3
Format settings, Mode : Joint stereo / MS Stereo
Codec ID : 55
Codec ID/Hint : MP3
Duration : 1h 34mn
Bit rate mode : Constant
Bit rate : 256 Kbps
Channel(s) : 2 channels
Sampling rate : 44.1 KHz
Resolution : 16 bits
Stream size : 173 MiB (18%)
Alignment : Aligned on interleaves
Interleave, duration : 26 ms (0.78 video frame)
Interleave, preload duration : 26 ms
Writing library : LAME3.97
...............................................
Plot:
A team of mercenaries head to South America on a mission to overthrow a dictator